# xmcd
#
# Track frame offsets:
#	150
#	22810
#	36325
#	68625
#	88940
#	106290
#	142317
#	157885
#	198770
#	202335
#	223222
#	251687
#
# Disc length: 4163 seconds
#
# Revision: 1
# Processed by: cddbd v1.5.1PL0 Copyright (c) Steve Scherf et al.
# Submitted via: CDex 1.50Beta5
#
DISCID=b210410c
DTITLE=Various Artist - クラシック200%
DYEAR=1900
DGENRE=Classical
TTITLE0=夜想曲 第2番
TTITLE1=亜麻色の髪の乙女
TTITLE2=英雄ポロネーズ
TTITLE3=別れの曲
TTITLE4=主よ、人の望みの喜びよ
TTITLE5=6交響曲第2番
TTITLE6=7ホルン協奏曲第2番
TTITLE7=8交響曲第6番田園
TTITLE8=前奏曲 第7番
TTITLE9=行け、わが想いよ、金色の翼に乗って
TTITLE10=威風堂々行進曲 第1番
TTITLE11=《タンホイザー》序曲
EXTD=
EXTT0=
EXTT1=
EXTT2=
EXTT3=
EXTT4=
EXTT5=
EXTT6=
EXTT7=
EXTT8=
EXTT9=
EXTT10=
EXTT11=
PLAYORDER=
